<mxfile host="app.diagrams.net" agent="Mozilla/5.0 (Windows NT 10.0; Win64; x64) AppleWebKit/537.36 (KHTML, like Gecko) Chrome/124.0.0.0 Safari/537.36" version="26.0.5">
  <diagram name="第 1 页" id="jXhxipRqwU4gSd97U1G0">
    <mxGraphModel dx="1434" dy="738" grid="1" gridSize="10" guides="1" tooltips="1" connect="1" arrows="1" fold="1" page="1" pageScale="1" pageWidth="827" pageHeight="1169" math="0" shadow="0">
      <root>
        <mxCell id="0" />
        <mxCell id="1" parent="0" />
        <object label="LuaGenerator" placeholders="1" id="eKSSO5L02ygA07uNvLS4-19">
          <mxCell style="swimlane;childLayout=stackLayout;horizontal=1;startSize=50;horizontalStack=0;rounded=1;fontSize=14;fontStyle=0;strokeWidth=2;resizeParent=0;resizeLast=1;shadow=0;dashed=0;align=center;arcSize=4;html=1;fillColor=#B2C9AB;strokeColor=#788AA3;labelBackgroundColor=none;fontColor=#46495D;swimlaneLine=1;whiteSpace=wrap;" parent="1" vertex="1">
            <mxGeometry x="350" y="230" width="300" height="150" as="geometry" />
          </mxCell>
        </object>
        <mxCell id="Wm5NDB8eYBWB9fzaG1bT-2" value="+ field: TubeParamters" style="text;strokeColor=#6c8ebf;fillColor=#dae8fc;align=left;verticalAlign=top;spacingLeft=4;spacingRight=4;overflow=hidden;rotatable=0;points=[[0,0.5],[1,0.5]];portConstraint=eastwest;whiteSpace=wrap;html=1;fontFamily=Helvetica;fontSize=14;fontStyle=0;labelBackgroundColor=none;" vertex="1" parent="eKSSO5L02ygA07uNvLS4-19">
          <mxGeometry y="50" width="300" height="26" as="geometry" />
        </mxCell>
        <mxCell id="Wm5NDB8eYBWB9fzaG1bT-5" value="+ field: NcexaWriter" style="text;strokeColor=#6c8ebf;fillColor=#dae8fc;align=left;verticalAlign=top;spacingLeft=4;spacingRight=4;overflow=hidden;rotatable=0;points=[[0,0.5],[1,0.5]];portConstraint=eastwest;whiteSpace=wrap;html=1;fontFamily=Helvetica;fontSize=14;fontStyle=0;labelBackgroundColor=none;" vertex="1" parent="eKSSO5L02ygA07uNvLS4-19">
          <mxGeometry y="76" width="300" height="26" as="geometry" />
        </mxCell>
        <mxCell id="Wm5NDB8eYBWB9fzaG1bT-6" value="+ field: 2DTo3DConvertor" style="text;strokeColor=#6c8ebf;fillColor=#dae8fc;align=left;verticalAlign=top;spacingLeft=4;spacingRight=4;overflow=hidden;rotatable=0;points=[[0,0.5],[1,0.5]];portConstraint=eastwest;whiteSpace=wrap;html=1;fontFamily=Helvetica;fontSize=14;fontStyle=0;labelBackgroundColor=none;" vertex="1" parent="eKSSO5L02ygA07uNvLS4-19">
          <mxGeometry y="102" width="300" height="26" as="geometry" />
        </mxCell>
        <mxCell id="eKSSO5L02ygA07uNvLS4-20" value="&lt;h3&gt;&lt;br&gt;&lt;/h3&gt;" style="align=left;strokeColor=#788AA3;fillColor=#B2C9AB;spacingLeft=4;fontSize=12;verticalAlign=top;resizable=0;rotatable=0;part=1;html=1;labelBackgroundColor=none;fontColor=#46495D;" parent="eKSSO5L02ygA07uNvLS4-19" vertex="1">
          <mxGeometry y="128" width="300" height="22" as="geometry" />
        </mxCell>
        <mxCell id="eKSSO5L02ygA07uNvLS4-21" value="Classname" style="swimlane;fontStyle=1;align=center;verticalAlign=top;childLayout=stackLayout;horizontal=1;startSize=26;horizontalStack=0;resizeParent=1;resizeParentMax=0;resizeLast=0;collapsible=1;marginBottom=0;whiteSpace=wrap;html=1;strokeColor=#788AA3;fontColor=#46495D;fillColor=#B2C9AB;" parent="1" vertex="1">
          <mxGeometry x="890" y="200" width="160" height="34" as="geometry" />
        </mxCell>
        <mxCell id="eKSSO5L02ygA07uNvLS4-23" value="" style="line;strokeWidth=1;fillColor=none;align=left;verticalAlign=middle;spacingTop=-1;spacingLeft=3;spacingRight=3;rotatable=0;labelPosition=right;points=[];portConstraint=eastwest;strokeColor=inherit;fontColor=#46495D;" parent="eKSSO5L02ygA07uNvLS4-21" vertex="1">
          <mxGeometry y="26" width="160" height="8" as="geometry" />
        </mxCell>
        <mxCell id="Wm5NDB8eYBWB9fzaG1bT-1" value="Classname" style="swimlane;fontStyle=1;align=center;verticalAlign=top;childLayout=stackLayout;horizontal=1;startSize=26;horizontalStack=0;resizeParent=1;resizeParentMax=0;resizeLast=0;collapsible=1;marginBottom=0;whiteSpace=wrap;html=1;rounded=1;shadow=0;dashed=0;strokeColor=#788AA3;strokeWidth=2;arcSize=4;fontFamily=Helvetica;fontSize=14;fontColor=#46495D;labelBackgroundColor=none;fillColor=#B2C9AB;" vertex="1" parent="1">
          <mxGeometry x="1120" y="482" width="160" height="34" as="geometry" />
        </mxCell>
        <mxCell id="Wm5NDB8eYBWB9fzaG1bT-3" value="" style="line;strokeWidth=1;fillColor=none;align=left;verticalAlign=middle;spacingTop=-1;spacingLeft=3;spacingRight=3;rotatable=0;labelPosition=right;points=[];portConstraint=eastwest;strokeColor=inherit;rounded=1;shadow=0;dashed=0;arcSize=4;fontFamily=Helvetica;fontSize=14;fontColor=#46495D;fontStyle=0;labelBackgroundColor=none;" vertex="1" parent="Wm5NDB8eYBWB9fzaG1bT-1">
          <mxGeometry y="26" width="160" height="8" as="geometry" />
        </mxCell>
        <mxCell id="Wm5NDB8eYBWB9fzaG1bT-4" value="+ method(type): type" style="text;strokeColor=none;fillColor=none;align=left;verticalAlign=top;spacingLeft=4;spacingRight=4;overflow=hidden;rotatable=0;points=[[0,0.5],[1,0.5]];portConstraint=eastwest;whiteSpace=wrap;html=1;fontFamily=Helvetica;fontSize=14;fontColor=#46495D;fontStyle=0;labelBackgroundColor=none;" vertex="1" parent="1">
          <mxGeometry x="750" y="490" width="160" height="26" as="geometry" />
        </mxCell>
      </root>
    </mxGraphModel>
  </diagram>
</mxfile>
